# xmcd
#
# Track frame offsets:
#	150
#	19502
#	35422
#	54735
#	70332
#	91067
#	107000
#	123080
#	142987
#	163707
#
# Disc length: 2454 seconds
#
# Revision: 0
# Processed by: cddbd v1.5.1PL0 Copyright (c) Steve Scherf et al.
# Submitted via: audiograbber 1.83.01
#
DISCID=7a09940a
DTITLE=Selcuk Ural - Best Of
DYEAR=1900
DGENRE=Pop
TTITLE0=Arkadasimin Askisin
TTITLE1=Deniz Ve Mehtap
TTITLE2=Sarhos
TTITLE3=Iki Yabanci
TTITLE4=Meyhanenin Kanunu
TTITLE5=Insaallah
TTITLE6=Güle Güle Sana
TTITLE7=Olam Boyun Kurbani
TTITLE8=Memleketim
TTITLE9=Benim Bütün Rüyalarim Seninle
EXTD=
EXTT0=
EXTT1=
EXTT2=
EXTT3=
EXTT4=
EXTT5=
EXTT6=
EXTT7=
EXTT8=
EXTT9=
PLAYORDER=
